<svg xmlns="http://www.w3.org/2000/svg" xmlns:xlink="http://www.w3.org/1999/xlink" width="12" height="12" viewBox="0 0 12 12">
  <defs>
    <clipPath id="clip-path">
      <path id="Path_45922" data-name="Path 45922" d="M6-4.5a6,6,0,0,1-6-6,6,6,0,0,1,6-6,6,6,0,0,1,6,6A6,6,0,0,1,6-4.5ZM6-15.7A5.2,5.2,0,0,0,.8-10.5,5.2,5.2,0,0,0,6-5.3a5.2,5.2,0,0,0,5.2-5.2,5.2,5.2,0,0,0-1.523-3.677A5.2,5.2,0,0,0,6-15.7Z" transform="translate(0 16.5)" fill="#036"/>
    </clipPath>
    <clipPath id="clip-path-2">
      <path id="Path_45925" data-name="Path 45925" d="M7.579-9.763h.665v3.992H7.579Z" transform="translate(-7.579 9.763)" fill="#036"/>
    </clipPath>
    <clipPath id="clip-path-3">
      <path id="Path_45928" data-name="Path 45928" d="M7.79-11.288a.79.79,0,0,1-.79-.79.79.79,0,0,1,.79-.79.79.79,0,0,1,.79.79A.79.79,0,0,1,7.79-11.288Z" transform="translate(-7 12.868)" fill="#036"/>
    </clipPath>
  </defs>
  <g id="Group_85265" data-name="Group 85265" transform="translate(-904 -408)">
    <g id="Group_63884" data-name="Group 63884" transform="translate(904 408)" clip-path="url(#clip-path)">
      <path id="Path_45921" data-name="Path 45921" d="M-1-17.5H12.5V-4H-1Z" transform="translate(0.25 16.75)" fill="#036"/>
    </g>
    <g id="Group_63886" data-name="Group 63886" transform="translate(909.667 412.928)" clip-path="url(#clip-path-2)">
      <path id="Path_45924" data-name="Path 45924" d="M6.579-10.763H8.824v5.572H6.579Z" transform="translate(-7.369 9.973)" fill="#036"/>
    </g>
    <g id="Group_63888" data-name="Group 63888" transform="translate(909.21 410.703)" clip-path="url(#clip-path-3)">
      <path id="Path_45927" data-name="Path 45927" d="M6-13.868H9.16v3.16H6Z" transform="translate(-6.79 13.078)" fill="#036"/>
    </g>
  </g>
</svg>
