<svg xmlns="http://www.w3.org/2000/svg" width="31" height="31" viewBox="0 0 31 31">
  <g id="Icon_Call_-_Blue" data-name="Icon/Call - Blue" style="mix-blend-mode: normal;isolation: isolate">
    <g id="Oval" fill="none" stroke="#0057af" stroke-width="1.5">
      <circle cx="15.5" cy="15.5" r="15.5" stroke="none"/>
      <circle cx="15.5" cy="15.5" r="14.75" fill="none"/>
    </g>
    <path id="Path" d="M3.185,5.393a3.084,3.084,0,0,0,.712-.12A1.881,1.881,0,0,0,5.05,3.412,3.838,3.838,0,0,0,4.524.851,2.445,2.445,0,0,0,2.677.014C1.88-.037.812.014.338.766A2.387,2.387,0,0,0,.033,1.841a10.512,10.512,0,0,0,.559,4.03A14.111,14.111,0,0,0,2.643,9.9c.136.188.271.359.407.529l.034.034A11.829,11.829,0,0,0,10.27,14.6c1.119.2,2.864.615,3.864-.171.763-.6.746-1.759.678-2.647-.136-1.827-3.017-2.288-4.373-1.861-.881.273-.729.922-.949,1.639-.051.154-.1.222-.288.154a12.157,12.157,0,0,1-3.864-2.63A6.253,6.253,0,0,1,3.185,5.393Z" transform="translate(8 8.051)" fill="none" stroke="#0057af" stroke-linecap="round" stroke-linejoin="round" stroke-width="1.5"/>
  </g>
</svg>
